<svg width="150" height="41" viewBox="0 0 150 41" fill="none" xmlns="http://www.w3.org/2000/svg">
<path d="M17.7936 13.398C17.8376 13.838 17.8596 14.3953 17.8596 15.07C17.8596 15.73 17.7276 16.544 17.4636 17.512C17.1996 18.4653 16.7229 19.3087 16.0336 20.042C14.6256 21.5527 12.6896 22.308 10.2256 22.308C7.23358 22.308 4.87225 21.5747 3.14158 20.108C1.41091 18.6267 0.545578 16.698 0.545578 14.322C0.545578 11.9313 1.41824 9.99533 3.16358 8.514C4.92358 7.03267 7.24091 6.292 10.1156 6.292C11.2156 6.292 12.2642 6.402 13.2616 6.622C14.2589 6.842 15.0876 7.128 15.7476 7.48L15.7916 11.264H15.6156C15.3662 10.3253 14.9482 9.54067 14.3616 8.91C13.3056 7.78067 11.8829 7.216 10.0936 7.216C8.30425 7.216 6.85958 7.854 5.75958 9.13C4.67424 10.406 4.13158 12.1 4.13158 14.212C4.13158 16.3093 4.69624 18.018 5.82558 19.338C6.96958 20.658 8.53891 21.34 10.5336 21.384C12.6896 21.384 14.4056 20.6947 15.6816 19.316C16.9576 17.9373 17.5956 16.0673 17.5956 13.706C17.5956 13.6033 17.5956 13.5007 17.5956 13.398H17.7936ZM39.3165 26.026C37.7178 26.8327 36.0971 26.9647 34.4545 26.422C32.7091 25.8647 31.2058 24.6767 29.9445 22.858C29.2698 21.89 28.6905 20.768 28.2065 19.492L27.5025 17.622H22.3105L21.1445 20.394C21.0711 20.5847 21.0345 20.7387 21.0345 20.856C21.0345 20.9733 21.0565 21.1053 21.1005 21.252C21.1591 21.384 21.2691 21.5087 21.4305 21.626C21.6065 21.7287 21.7971 21.78 22.0025 21.78H22.1785V22H17.4705V21.78H17.6685C18.0058 21.78 18.3358 21.6847 18.6585 21.494C18.9958 21.2887 19.2745 20.988 19.4945 20.592L24.4005 9.394C23.8285 8.10333 23.2198 7.216 22.5745 6.732C22.0318 6.32133 21.5111 6.116 21.0125 6.116C20.5285 6.116 20.0738 6.18933 19.6485 6.336L19.6045 6.116C20.6605 5.57333 21.6725 5.302 22.6405 5.302C23.8431 5.302 24.9211 5.77133 25.8745 6.71C26.8131 7.634 27.6418 8.96867 28.3605 10.714L31.5505 18.59C32.7531 21.5673 33.9851 23.6133 35.2465 24.728C35.7598 25.1827 36.2878 25.498 36.8305 25.674C37.3731 25.85 37.8278 25.938 38.1945 25.938C38.5758 25.938 38.9425 25.894 39.2945 25.806L39.3165 26.026ZM22.6845 16.676H27.1725L25.6325 12.606C25.5591 12.4007 25.4565 12.122 25.3245 11.77C25.1925 11.4033 25.1045 11.1467 25.0605 11L22.6845 16.676ZM35.6442 15.752C35.0575 16.6907 34.7642 17.6513 34.7642 18.634C34.7642 19.7047 35.1528 20.68 35.9302 21.56C36.3555 22.0587 36.8908 22.4473 37.5362 22.726C38.1962 23.0047 38.9148 23.144 39.6922 23.144C40.4695 23.144 41.1662 22.9973 41.7822 22.704C43.0142 22.1027 43.6302 21.12 43.6302 19.756C43.6302 19.2427 43.4542 18.7 43.1022 18.128C42.7648 17.556 42.2515 17.0427 41.5622 16.588L37.8222 14.08C36.3702 13.1707 35.6442 11.9973 35.6442 10.56C35.6442 10.4133 35.6515 10.2667 35.6662 10.12C35.7542 8.99067 36.2015 8.074 37.0082 7.37C37.8295 6.65133 38.9222 6.292 40.2862 6.292C41.1222 6.292 42.1342 6.36533 43.3222 6.512H44.6862L44.4002 9.746H44.2022C44.1875 8.98333 43.8942 8.37467 43.3222 7.92C42.7502 7.45067 41.9948 7.216 41.0562 7.216C39.9122 7.216 39.0835 7.56067 38.5702 8.25C38.3208 8.602 38.1962 8.98333 38.1962 9.394C38.1962 9.80467 38.3208 10.1567 38.5702 10.45C38.8195 10.7287 39.2155 11.0367 39.7582 11.374L43.8722 14.058C44.7082 14.6007 45.3608 15.2387 45.8302 15.972C46.3875 16.8373 46.6662 17.7247 46.6662 18.634C46.6662 19.2207 46.5415 19.844 46.2922 20.504C46.0575 21.1493 45.6615 21.7507 45.1042 22.308C44.5615 22.8653 43.8575 23.32 42.9922 23.672C42.1268 24.024 41.1662 24.2 40.1102 24.2C39.0688 24.2 38.1228 24.0167 37.2722 23.65C35.7028 22.99 34.7055 21.8387 34.2802 20.196C34.1922 19.844 34.1482 19.4773 34.1482 19.096C34.1482 17.864 34.5808 16.698 35.4462 15.598L35.6442 15.752ZM49.3512 15.752C48.7645 16.6907 48.4712 17.6513 48.4712 18.634C48.4712 19.7047 48.8599 20.68 49.6372 21.56C50.0625 22.0587 50.5979 22.4473 51.2432 22.726C51.9032 23.0047 52.6219 23.144 53.3992 23.144C54.1765 23.144 54.8732 22.9973 55.4892 22.704C56.7212 22.1027 57.3372 21.12 57.3372 19.756C57.3372 19.2427 57.1612 18.7 56.8092 18.128C56.4719 17.556 55.9585 17.0427 55.2692 16.588L51.5292 14.08C50.0772 13.1707 49.3512 11.9973 49.3512 10.56C49.3512 10.4133 49.3585 10.2667 49.3732 10.12C49.4612 8.99067 49.9085 8.074 50.7152 7.37C51.5365 6.65133 52.6292 6.292 53.9932 6.292C54.8292 6.292 55.8412 6.36533 57.0292 6.512H58.3932L58.1072 9.746H57.9092C57.8945 8.98333 57.6012 8.37467 57.0292 7.92C56.4572 7.45067 55.7019 7.216 54.7632 7.216C53.6192 7.216 52.7905 7.56067 52.2772 8.25C52.0279 8.602 51.9032 8.98333 51.9032 9.394C51.9032 9.80467 52.0279 10.1567 52.2772 10.45C52.5265 10.7287 52.9225 11.0367 53.4652 11.374L57.5792 14.058C58.4152 14.6007 59.0679 15.2387 59.5372 15.972C60.0945 16.8373 60.3732 17.7247 60.3732 18.634C60.3732 19.2207 60.2485 19.844 59.9992 20.504C59.7645 21.1493 59.3685 21.7507 58.8112 22.308C58.2685 22.8653 57.5645 23.32 56.6992 23.672C55.8339 24.024 54.8732 24.2 53.8172 24.2C52.7759 24.2 51.8299 24.0167 50.9792 23.65C49.4099 22.99 48.4125 21.8387 47.9872 20.196C47.8992 19.844 47.8552 19.4773 47.8552 19.096C47.8552 17.864 48.2879 16.698 49.1532 15.598L49.3512 15.752ZM70.0501 21.78H70.3361V22H63.6481V21.78H63.9341C64.3154 21.78 64.6381 21.648 64.9021 21.384C65.1808 21.1053 65.3274 20.7753 65.3421 20.394V7.502L63.2521 7.59C61.8734 7.64867 61.1841 8.162 61.1841 9.13C61.1841 9.526 61.3161 9.86333 61.5801 10.142C61.8588 10.406 62.2401 10.538 62.7241 10.538C62.7681 10.538 62.8121 10.538 62.8561 10.538V10.67C62.5628 10.7727 62.3134 10.824 62.1081 10.824C61.4481 10.824 60.9421 10.5893 60.5901 10.12C60.3408 9.79733 60.2161 9.43067 60.2161 9.02C60.2161 8.37467 60.4728 7.84667 60.9861 7.436C61.4848 7.01067 62.2621 6.76133 63.3181 6.688C63.5088 6.67333 64.1248 6.644 65.1661 6.6C67.5421 6.512 69.2654 6.36533 70.3361 6.16L70.3801 6.38C69.7494 6.48267 69.3021 6.69533 69.0381 7.018C68.7888 7.34067 68.6568 7.81733 68.6421 8.448V20.394C68.6568 20.7753 68.7961 21.1053 69.0601 21.384C69.3388 21.648 69.6688 21.78 70.0501 21.78ZM78.0696 12.166C77.8056 11.6087 77.6736 11.0807 77.6736 10.582C77.6736 10.0687 77.7396 9.59933 77.8716 9.174C78.0036 8.734 78.2236 8.30867 78.5316 7.898C78.8396 7.47267 79.2723 7.12067 79.8296 6.842C80.5923 6.446 81.509 6.248 82.5796 6.248C83.9876 6.248 85.3223 6.60733 86.5836 7.326C88.241 8.26467 89.3923 9.56267 90.0376 11.22C90.4043 12.1293 90.5876 13.1047 90.5876 14.146C90.5876 16.5953 89.7003 18.568 87.9256 20.064C86.1656 21.56 83.863 22.308 81.0176 22.308C78.187 22.308 75.877 21.56 74.0876 20.064C72.313 18.568 71.4256 16.6027 71.4256 14.168C71.4256 12.3493 71.939 10.7727 72.9656 9.438C74.007 8.08867 75.4076 7.172 77.1676 6.688L77.2996 6.886C76.5516 7.51667 75.987 8.44067 75.6056 9.658C75.2243 10.8753 75.0336 12.188 75.0336 13.596C75.0336 15.972 75.5836 17.864 76.6836 19.272C77.7836 20.68 79.221 21.384 80.9956 21.384C82.785 21.384 84.2223 20.724 85.3076 19.404C86.4076 18.0693 86.9576 16.3093 86.9576 14.124C86.9576 12.804 86.7523 11.616 86.3416 10.56C85.9456 9.48933 85.3663 8.668 84.6036 8.096C83.841 7.50933 82.9903 7.216 82.0516 7.216C81.0103 7.216 80.167 7.48733 79.5216 8.03C78.6123 8.80733 78.1576 9.79733 78.1576 11C78.1576 11.3813 78.209 11.77 78.3116 12.166H78.0696ZM97.9569 13.64C98.2063 14.2267 98.7196 14.52 99.4969 14.52C100.377 14.52 101.081 14.08 101.609 13.2C101.976 12.5987 102.159 11.836 102.159 10.912C102.159 9.548 101.8 8.55067 101.081 7.92C100.538 7.45067 99.8489 7.216 99.0129 7.216C98.8223 7.216 98.6243 7.23067 98.4189 7.26L96.9449 7.48V20.394C96.9449 20.79 97.0843 21.12 97.3629 21.384C97.6416 21.648 97.9716 21.78 98.3529 21.78H98.6389V22H91.9509V21.78H92.2369C92.6183 21.78 92.9409 21.648 93.2049 21.384C93.4836 21.12 93.6303 20.79 93.6449 20.394V8.668C93.6303 8.28667 93.5129 7.986 93.2929 7.766C93.0876 7.546 92.7796 7.436 92.3689 7.436C92.2663 7.436 92.1343 7.44333 91.9729 7.458L91.9289 7.26C93.1756 7.15733 94.4809 6.98867 95.8449 6.754C97.2236 6.50467 98.1256 6.35067 98.5509 6.292C98.9909 6.23333 99.4309 6.204 99.8709 6.204C100.326 6.204 100.868 6.25533 101.499 6.358C102.13 6.446 102.775 6.65867 103.435 6.996C104.095 7.31867 104.63 7.80267 105.041 8.448C105.466 9.152 105.679 9.95133 105.679 10.846C105.679 11.726 105.518 12.5033 105.195 13.178C104.579 14.4687 103.523 15.29 102.027 15.642C101.66 15.73 101.308 15.774 100.971 15.774C100.648 15.774 100.34 15.7447 100.047 15.686C99.4456 15.598 98.9396 15.3927 98.5289 15.07C98.1183 14.7473 97.8616 14.3 97.7589 13.728L97.9569 13.64ZM107.597 21.78C107.978 21.78 108.301 21.648 108.565 21.384C108.843 21.1053 108.99 20.7753 109.005 20.394V8.14C108.961 7.62667 108.719 7.24533 108.279 6.996C108.059 6.87867 107.831 6.82 107.597 6.82H107.311V6.6H113.493C114.138 6.6 114.703 6.54867 115.187 6.446C115.671 6.34333 115.986 6.26267 116.133 6.204V10.054H115.891V9.79C115.905 9.13 115.715 8.602 115.319 8.206C114.937 7.79533 114.417 7.57533 113.757 7.546H112.305V13.948H115.803C116.345 13.9333 116.793 13.75 117.145 13.398C117.497 13.0313 117.673 12.584 117.673 12.056V11.858H117.871V16.94H117.673V16.764C117.673 16.2213 117.497 15.774 117.145 15.422C116.793 15.07 116.353 14.8867 115.825 14.872H112.305V21.054H116.595C117.665 21.054 118.56 20.746 119.279 20.13C120.012 19.514 120.555 18.6413 120.907 17.512H121.127L120.093 22H107.311V21.78H107.597ZM129.326 21.78H129.612V22H122.924V21.78H123.21C123.591 21.78 123.914 21.648 124.178 21.384C124.456 21.1053 124.603 20.7753 124.618 20.394V7.502L122.528 7.59C121.149 7.64867 120.46 8.162 120.46 9.13C120.46 9.526 120.592 9.86333 120.856 10.142C121.134 10.406 121.516 10.538 122 10.538C122.044 10.538 122.088 10.538 122.132 10.538V10.67C121.838 10.7727 121.589 10.824 121.384 10.824C120.724 10.824 120.217 10.5893 119.865 10.12C119.616 9.79733 119.491 9.43067 119.491 9.02C119.491 8.37467 119.748 7.84667 120.261 7.436C120.76 7.01067 121.538 6.76133 122.594 6.688C122.784 6.67333 123.4 6.644 124.442 6.6C126.818 6.512 128.541 6.36533 129.612 6.16L129.656 6.38C129.025 6.48267 128.578 6.69533 128.314 7.018C128.064 7.34067 127.932 7.81733 127.918 8.448V20.394C127.932 20.7753 128.072 21.1053 128.336 21.384C128.614 21.648 128.944 21.78 129.326 21.78ZM151.723 26.026C150.124 26.8327 148.503 26.9647 146.861 26.422C145.115 25.8647 143.612 24.6767 142.351 22.858C141.676 21.89 141.097 20.768 140.613 19.492L139.909 17.622H134.717L133.551 20.394C133.477 20.5847 133.441 20.7387 133.441 20.856C133.441 20.9733 133.463 21.1053 133.507 21.252C133.565 21.384 133.675 21.5087 133.837 21.626C134.013 21.7287 134.203 21.78 134.409 21.78H134.585V22H129.877V21.78H130.075C130.412 21.78 130.742 21.6847 131.065 21.494C131.402 21.2887 131.681 20.988 131.901 20.592L136.807 9.394C136.235 8.10333 135.626 7.216 134.981 6.732C134.438 6.32133 133.917 6.116 133.419 6.116C132.935 6.116 132.48 6.18933 132.055 6.336L132.011 6.116C133.067 5.57333 134.079 5.302 135.047 5.302C136.249 5.302 137.327 5.77133 138.281 6.71C139.219 7.634 140.048 8.96867 140.767 10.714L143.957 18.59C145.159 21.5673 146.391 23.6133 147.653 24.728C148.166 25.1827 148.694 25.498 149.237 25.674C149.779 25.85 150.234 25.938 150.601 25.938C150.982 25.938 151.349 25.894 151.701 25.806L151.723 26.026ZM135.091 16.676H139.579L138.039 12.606C137.965 12.4007 137.863 12.122 137.731 11.77C137.599 11.4033 137.511 11.1467 137.467 11L135.091 16.676Z" fill="white"/>
<path d="M55.2931 38V31.929C55.2757 31.8597 55.2497 31.825 55.2151 31.825L54.4221 31.799L54.4351 31.617C54.9811 31.539 55.3494 31.5 55.5401 31.5C55.8867 31.5 56.0817 31.6517 56.1251 31.955H56.1381V38C56.1381 38.026 56.1381 38.0477 56.1381 38.065C56.1381 38.403 56.0731 38.7453 55.9431 39.092C55.8131 39.4387 55.6527 39.7333 55.4621 39.976C55.0634 40.4873 54.6994 40.8557 54.3701 41.081L54.1751 41.224L54.0841 41.12C54.4394 40.7127 54.7297 40.2013 54.9551 39.586C55.1804 38.9707 55.2931 38.442 55.2931 38ZM55.6961 29.758C55.5227 29.758 55.3841 29.706 55.2801 29.602C55.1847 29.4893 55.1371 29.3463 55.1371 29.173C55.1371 28.991 55.1891 28.848 55.2931 28.744C55.3971 28.6313 55.5357 28.575 55.7091 28.575C55.8824 28.575 56.0211 28.6313 56.1251 28.744C56.2291 28.848 56.2811 28.9953 56.2811 29.186C56.2811 29.368 56.2247 29.511 56.1121 29.615C56.0081 29.7103 55.8694 29.758 55.6961 29.758ZM58.3631 35.01C58.3631 36.882 59.0911 37.818 60.5471 37.818C60.9284 37.818 61.3358 37.779 61.7691 37.701C62.2024 37.6143 62.4798 37.5363 62.6011 37.467L62.6921 37.597C62.4928 37.727 62.1634 37.8353 61.7041 37.922C61.2534 38.0087 60.8374 38.052 60.4561 38.052C60.0834 38.052 59.7454 38.013 59.4421 37.935C59.1474 37.857 58.8441 37.7183 58.5321 37.519C58.2201 37.3197 57.9731 37.0077 57.7911 36.583C57.6091 36.1583 57.5181 35.6383 57.5181 35.023C57.5181 33.879 57.8128 33.0037 58.4021 32.397C59.0174 31.7643 59.7324 31.448 60.5471 31.448C61.3618 31.448 61.9814 31.6733 62.4061 32.124C62.8394 32.5747 63.0561 33.2073 63.0561 34.022C63.0561 34.1953 63.0431 34.3817 63.0171 34.581H58.3761C58.3674 34.6763 58.3631 34.8193 58.3631 35.01ZM62.2891 33.931C62.2891 33.281 62.1461 32.7523 61.8601 32.345C61.5741 31.929 61.1841 31.721 60.6901 31.721C60.0488 31.721 59.5071 32.0027 59.0651 32.566C58.7098 33.008 58.4888 33.5973 58.4021 34.334H62.2761C62.2848 34.2387 62.2891 34.1043 62.2891 33.931ZM74.9563 31.5C74.9563 31.5087 74.9606 31.5737 74.9693 31.695L74.2153 31.773L73.7473 31.877L71.4203 38H70.6403L69.1193 32.852L67.3643 38H66.5843L64.5563 31.929C64.5043 31.8337 64.4393 31.7817 64.3613 31.773L63.6853 31.708C63.6766 31.656 63.6723 31.591 63.6723 31.513L66.4023 31.5C66.4023 31.5087 66.4066 31.5737 66.4153 31.695L65.4793 31.76L67.2343 37.584L69.1323 31.565L69.5743 31.5L71.2253 37.792L73.2663 31.968C73.2923 31.916 73.2793 31.8727 73.2273 31.838C73.1753 31.8033 73.1146 31.7817 73.0453 31.773L72.3693 31.708C72.3606 31.656 72.3563 31.591 72.3563 31.513L74.9563 31.5ZM75.5145 35.01C75.5145 36.882 76.2425 37.818 77.6985 37.818C78.0798 37.818 78.4871 37.779 78.9205 37.701C79.3538 37.6143 79.6311 37.5363 79.7525 37.467L79.8435 37.597C79.6441 37.727 79.3148 37.8353 78.8555 37.922C78.4048 38.0087 77.9888 38.052 77.6075 38.052C77.2348 38.052 76.8968 38.013 76.5935 37.935C76.2988 37.857 75.9955 37.7183 75.6835 37.519C75.3715 37.3197 75.1245 37.0077 74.9425 36.583C74.7605 36.1583 74.6695 35.6383 74.6695 35.023C74.6695 33.879 74.9641 33.0037 75.5535 32.397C76.1688 31.7643 76.8838 31.448 77.6985 31.448C78.5131 31.448 79.1328 31.6733 79.5575 32.124C79.9908 32.5747 80.2075 33.2073 80.2075 34.022C80.2075 34.1953 80.1945 34.3817 80.1685 34.581H75.5275C75.5188 34.6763 75.5145 34.8193 75.5145 35.01ZM79.4405 33.931C79.4405 33.281 79.2975 32.7523 79.0115 32.345C78.7255 31.929 78.3355 31.721 77.8415 31.721C77.2001 31.721 76.6585 32.0027 76.2165 32.566C75.8611 33.008 75.6401 33.5973 75.5535 34.334H79.4275C79.4361 34.2387 79.4405 34.1043 79.4405 33.931ZM81.2517 38.013L81.2647 37.831L81.9407 37.74C82.0014 37.7313 82.0404 37.688 82.0577 37.61V28.718C82.0577 28.6227 82.0317 28.575 81.9797 28.575L81.1867 28.549L81.1997 28.367C81.7457 28.289 82.1184 28.25 82.3177 28.25C82.5257 28.25 82.6731 28.3063 82.7597 28.419C82.8551 28.5317 82.9027 28.653 82.9027 28.783V37.74L83.8777 37.805C83.8777 37.8137 83.8734 37.8787 83.8647 38L81.2517 38.013ZM86.2256 32.033V33.073C86.9102 32.0677 87.5819 31.5563 88.2406 31.539C88.2926 31.539 88.3446 31.539 88.3966 31.539L89.1246 31.63L88.7866 32.41C88.6219 32.2453 88.4096 32.163 88.1496 32.163C87.5169 32.1717 86.8756 32.592 86.2256 33.424V37.74L87.3306 37.805C87.3306 37.8137 87.3262 37.8787 87.3176 38L84.5876 38.013C84.5876 37.935 84.5919 37.8743 84.6006 37.831L85.2766 37.74C85.3459 37.7313 85.3806 37.6707 85.3806 37.558V31.916C85.3632 31.8553 85.3372 31.825 85.3026 31.825L84.5226 31.799L84.5356 31.617C85.0036 31.539 85.3589 31.5 85.6016 31.5C85.8442 31.5 86.0089 31.5563 86.0956 31.669C86.1822 31.7817 86.2256 31.903 86.2256 32.033ZM91.4908 41.25L91.4648 41.068L92.6738 40.912C92.7344 40.9033 92.7734 40.8427 92.7908 40.73L93.2198 38H92.7908L90.6198 31.955L90.6068 31.942C90.5634 31.838 90.4941 31.7773 90.3988 31.76L89.8138 31.708C89.8051 31.656 89.8008 31.591 89.8008 31.513L92.5308 31.5C92.5308 31.5087 92.5351 31.5737 92.5438 31.695L91.5298 31.773L93.4538 37.662L95.8718 31.942C95.8978 31.89 95.8804 31.8467 95.8198 31.812C95.7678 31.7773 95.7114 31.7557 95.6508 31.747L95.0788 31.708C95.0701 31.656 95.0658 31.591 95.0658 31.513L97.4448 31.5C97.4448 31.5087 97.4491 31.5737 97.4578 31.695L96.3008 31.812L93.5708 38L93.0768 40.977L94.2078 41.042C94.2251 41.1633 94.2338 41.2283 94.2338 41.237L91.4908 41.25Z" fill="white"/>
</svg>
