<svg width="150" height="80" viewBox="0 0 150 80" fill="none" xmlns="http://www.w3.org/2000/svg">
<path d="M6.49518 0.793036L8.4764 5.77028L11.6131 1.42757L9.49462 6.34795L14.7834 5.49518L9.80614 7.47641L14.1489 10.6131L9.22847 8.49463L10.0812 13.7834L8.10001 8.80615L4.96329 13.1489L7.08179 8.22848L1.79303 9.08124L6.77028 7.10002L2.42756 3.96329L7.34794 6.0818L6.49518 0.793036Z" fill="white"/>
<path d="M32.8946 28.4829L36.8077 35.1585L40.3409 28.2742L38.3875 35.7616L45.7537 33.392L39.0781 37.3051L45.9624 40.8383L38.475 38.8849L40.8446 46.2511L36.9315 39.5755L33.3983 46.4597L35.3517 38.9724L27.9855 41.342L34.6611 37.4289L27.7768 33.8957L35.2642 35.8491L32.8946 28.4829Z" fill="white"/>
<path d="M64.5807 17.3189L71.1471 24.63L73.7926 15.1659L73.266 24.9787L81.8289 20.1573L74.5178 26.7236L83.9819 29.3692L74.1691 28.8426L78.9905 37.4054L72.4242 30.0943L69.7786 39.5584L70.3052 29.7456L61.7424 34.5671L69.0535 28.0007L59.5894 25.3552L69.4022 25.8818L64.5807 17.3189Z" fill="white"/>
<path d="M132.621 19.0744L137.591 27.5522L142.078 18.8094L139.597 28.3181L148.952 25.3088L140.474 30.2783L149.217 34.7653L139.708 32.2845L142.718 41.6393L137.748 33.1616L133.261 41.9043L135.742 32.3957L126.387 35.405L134.865 30.4355L126.122 25.9485L135.631 28.4292L132.621 19.0744Z" fill="white"/>
<path d="M102.674 52.0164L107.644 60.4941L112.131 51.7514L109.65 61.26L119.005 58.2507L110.527 63.2202L119.27 67.7072L109.761 65.2265L112.77 74.5813L107.801 66.1035L103.314 74.8463L105.795 65.3376L96.4398 68.3469L104.918 63.3774L96.1748 58.8905L105.683 61.3712L102.674 52.0164Z" fill="white"/>
<path d="M13.529 12.6175C22.7016 21.8008 23.4164 23.0744 32.0669 32.9794C22.8943 23.7961 22.1795 22.5225 13.529 12.6175Z" fill="white"/>
<path d="M82.4076 34.6337C91.954 44.8914 92.7513 46.3362 101.873 57.4498C92.3268 47.192 91.5295 45.7472 82.4076 34.6337Z" fill="white"/>
<path d="M134.123 34.9894C124.881 45.5225 123.524 46.4615 113.388 56.6587C122.63 46.1257 123.987 45.1866 134.123 34.9894Z" fill="white"/>
<path d="M46.4709 34.8533C52.6114 32.1536 53.3231 32.0675 59.6341 29.7988C53.4936 32.4985 52.7819 32.5846 46.4709 34.8533Z" fill="white"/>
</svg>
